<svg xmlns="http://www.w3.org/2000/svg" version="1.0" width="155pt" height="41pt" viewBox="0 0 801.000000 212.000000" preserveAspectRatio="xMidYMid meet">

<g transform="translate(0.000000,212.000000) scale(0.100000,-0.100000)" fill="#ffffff" stroke="none">
<path d="M590 1090 c0 -632 0 -627 56 -665 28 -19 52 -20 572 -23 l542 -3 0 116 0 115 -470 0 -470 0 0 520 0 520 -115 0 -115 0 0 -580z" fill="#ffffff"/>
<path d="M1964 1636 l-34 -34 0 -556 c0 -461 2 -562 14 -584 30 -57 26 -57 555 -57 l486 0 60 31 c65 33 116 94 135 162 17 64 12 203 -10 276 -22 71 -82 155 -136 191 l-31 21 23 35 c37 60 57 130 62 225 6 121 -13 180 -78 245 -78 78 -85 79 -583 79 l-429 0 -34 -34z m884 -208 c7 -7 12 -37 12 -68 0 -78 -36 -148 -92 -181 -42 -23 -50 -24 -280 -27 l-238 -4 0 -114 0 -113 298 -3 299 -3 36 -25 c50 -33 78 -94 80 -170 2 -51 -1 -64 -17 -76 -16 -12 -88 -14 -408 -14 l-388 0 0 405 0 405 343 0 c253 0 346 -3 355 -12z" fill="#ffffff"/>
<path d="M3453 1658 c-13 -6 -32 -30 -43 -53 -19 -40 -20 -60 -20 -561 0 -325 4 -533 10 -556 7 -23 23 -46 43 -60 32 -23 32 -23 407 -23 359 0 378 1 445 22 178 56 307 195 350 375 20 86 20 390 0 476 -42 178 -162 307 -344 369 -64 22 -78 22 -446 22 -250 0 -388 -4 -402 -11z m822 -245 c61 -32 112 -90 135 -150 17 -46 20 -78 20 -222 0 -126 -4 -179 -15 -212 -38 -108 -118 -172 -233 -189 -37 -5 -178 -10 -314 -10 l-248 0 0 406 0 405 308 -3 c292 -3 309 -4 347 -25z" fill="#ffffff"/>
<path d="M4943 1658 c-13 -6 -32 -30 -43 -53 -19 -39 -20 -60 -20 -461 0 -420 6 -507 36 -567 25 -48 85 -107 134 -132 79 -40 141 -45 577 -45 l413 0 0 115 0 115 -412 0 c-261 0 -427 4 -451 11 -66 18 -67 28 -67 439 l0 360 465 0 465 0 0 115 0 115 -537 -1 c-362 0 -545 -4 -560 -11z" fill="#ffffff"/>
<path d="M6130 1663 c0 -24 604 -1231 626 -1250 34 -31 101 -31 139 -1 18 14 56 79 106 182 42 89 176 363 298 611 122 247 221 453 221 457 0 5 -56 8 -125 8 l-125 0 -152 -312 c-84 -172 -184 -378 -223 -457 l-71 -143 -221 453 -221 454 -126 3 c-69 1 -126 -1 -126 -5z" fill="#ffffff"/>
<path d="M5210 1035 l0 -115 360 0 360 0 0 115 0 115 -360 0 -360 0 0 -115z" fill="#ffffff"/>
</g>
</svg>